<svg xmlns="http://www.w3.org/2000/svg" viewBox="0 0 100 100" preserveAspectRatio="xMidYMid" width="72" height="72" style="shape-rendering: auto; display: block; background: transparent;" xmlns:xlink="http://www.w3.org/1999/xlink"><g><g transform="rotate(0 50 50)">
  <rect fill="#567bcf" height="12" width="6" ry="1.8" rx="1.8" y="10" x="47">
    <animate repeatCount="indefinite" begin="-0.5693581780538303s" dur="0.6211180124223602s" keyTimes="0;1" values="1;0" attributeName="opacity"></animate>
  </rect>
</g><g transform="rotate(30 50 50)">
  <rect fill="#567bcf" height="12" width="6" ry="1.8" rx="1.8" y="10" x="47">
    <animate repeatCount="indefinite" begin="-0.5175983436853002s" dur="0.6211180124223602s" keyTimes="0;1" values="1;0" attributeName="opacity"></animate>
  </rect>
</g><g transform="rotate(60 50 50)">
  <rect fill="#567bcf" height="12" width="6" ry="1.8" rx="1.8" y="10" x="47">
    <animate repeatCount="indefinite" begin="-0.4658385093167702s" dur="0.6211180124223602s" keyTimes="0;1" values="1;0" attributeName="opacity"></animate>
  </rect>
</g><g transform="rotate(90 50 50)">
  <rect fill="#567bcf" height="12" width="6" ry="1.8" rx="1.8" y="10" x="47">
    <animate repeatCount="indefinite" begin="-0.41407867494824013s" dur="0.6211180124223602s" keyTimes="0;1" values="1;0" attributeName="opacity"></animate>
  </rect>
</g><g transform="rotate(120 50 50)">
  <rect fill="#567bcf" height="12" width="6" ry="1.8" rx="1.8" y="10" x="47">
    <animate repeatCount="indefinite" begin="-0.36231884057971014s" dur="0.6211180124223602s" keyTimes="0;1" values="1;0" attributeName="opacity"></animate>
  </rect>
</g><g transform="rotate(150 50 50)">
  <rect fill="#567bcf" height="12" width="6" ry="1.8" rx="1.8" y="10" x="47">
    <animate repeatCount="indefinite" begin="-0.3105590062111801s" dur="0.6211180124223602s" keyTimes="0;1" values="1;0" attributeName="opacity"></animate>
  </rect>
</g><g transform="rotate(180 50 50)">
  <rect fill="#567bcf" height="12" width="6" ry="1.8" rx="1.8" y="10" x="47">
    <animate repeatCount="indefinite" begin="-0.2587991718426501s" dur="0.6211180124223602s" keyTimes="0;1" values="1;0" attributeName="opacity"></animate>
  </rect>
</g><g transform="rotate(210 50 50)">
  <rect fill="#567bcf" height="12" width="6" ry="1.8" rx="1.8" y="10" x="47">
    <animate repeatCount="indefinite" begin="-0.20703933747412007s" dur="0.6211180124223602s" keyTimes="0;1" values="1;0" attributeName="opacity"></animate>
  </rect>
</g><g transform="rotate(240 50 50)">
  <rect fill="#567bcf" height="5" width="3" ry="1.8" rx="1.8" y="10" x="47">
    <animate repeatCount="indefinite" begin="-0.15527950310559005s" dur="0.6211180124223602s" keyTimes="0;1" values="1;0" attributeName="opacity"></animate>
  </rect>
</g><g transform="rotate(270 50 50)">
  <rect fill="#567bcf" height="5" width="3" ry="1.8" rx="1.8" y="10" x="47">
    <animate repeatCount="indefinite" begin="-0.10351966873706003s" dur="0.6211180124223602s" keyTimes="0;1" values="1;0" attributeName="opacity"></animate>
  </rect>
</g><g transform="rotate(300 50 50)">
  <rect fill="#567bcf" height="12" width="6" ry="1.8" rx="1.8" y="10" x="47">
    <animate repeatCount="indefinite" begin="-0.05175983436853002s" dur="0.6211180124223602s" keyTimes="0;1" values="1;0" attributeName="opacity"></animate>
  </rect>
</g><g transform="rotate(330 50 50)">
  <rect fill="#567bcf" height="12" width="6" ry="1.8" rx="1.8" y="10" x="47">
    <animate repeatCount="indefinite" begin="0s" dur="0.6211180124223602s" keyTimes="0;1" values="1;0" attributeName="opacity"></animate>
  </rect>
</g><g></g></g><!-- [ldio] generated by https://loading.io --></svg>